<svg xmlns="http://www.w3.org/2000/svg" viewBox="0 0 104 104" width="104" height="104">
	<defs>
		<clipPath clipPathUnits="userSpaceOnUse" id="cp1">
			<path d="M-1746 -828L1060 -828L1060 828L-1746 828Z" />
		</clipPath>
	</defs>
	<style>
		tspan { white-space:pre }
		.shp0 { fill: #1ed760 } 
	</style>
	<g id="Page 1" clip-path="url(#cp1)">
		<path id="Path 13" fill-rule="evenodd" class="shp0" d="M52 0C80.72 0 104 23.28 104 52C104 80.72 80.72 104 52 104C23.28 104 0 80.72 0 52C0 23.28 23.28 0 52 0L52 0ZM74.77 70.54C61.07 62.16 44.07 60.21 24.27 64.74C22.52 65.14 21.43 66.88 21.83 68.62C22.23 70.37 23.96 71.46 25.71 71.06C43.81 66.93 59.18 68.62 71.39 76.07C72.92 77.01 74.91 76.53 75.85 75C76.78 73.47 76.3 71.48 74.77 70.54ZM82.21 60.84C83.38 58.94 82.78 56.44 80.88 55.27C64.82 45.4 41.35 42.63 22.46 48.36C20.32 49.01 19.11 51.27 19.76 53.41C20.41 55.55 22.67 56.76 24.82 56.11C41.35 51.09 62.66 53.58 76.63 62.18C78.54 63.35 81.04 62.75 82.21 60.84L82.21 60.84ZM82.76 46.09C85.06 47.47 88.06 46.7 89.42 44.39C90.79 42.09 90.04 39.1 87.72 37.73C68.43 26.27 37.89 25.2 19.52 30.77C16.95 31.55 15.5 34.27 16.28 36.84C17.06 39.41 19.78 40.86 22.35 40.08C38.35 35.22 66 36.14 82.76 46.09L82.76 46.09Z" />
	</g>
</svg>